<?xml version="1.0" standalone="no"?><!DOCTYPE svg PUBLIC "-//W3C//DTD SVG 1.1//EN" "http://www.w3.org/Graphics/SVG/1.1/DTD/svg11.dtd"><svg t="1600037476028" class="icon" viewBox="0 0 1024 1024" version="1.1" xmlns="http://www.w3.org/2000/svg" p-id="4873" xmlns:xlink="http://www.w3.org/1999/xlink" width="24" height="24"><defs><style type="text/css"></style></defs><path d="M920.32112 80h-80a37.12 37.12 0 0 0-37.12 37.12 37.12 37.12 0 0 0 37.12 37.12h80a32 32 0 0 1 30.56 31.04v733.44a32 32 0 0 1-30.56 31.04h-816a32 32 0 0 1-30.56-31.04V185.28a32 32 0 0 1 29.92-31.04h80a37.12 37.12 0 0 0 37.12-37.12A37.12 37.12 0 0 0 183.52112 80h-80A104.8 104.8 0 0 0 0.00112 185.28v733.44A104.8 104.8 0 0 0 103.68112 1024h816A104.8 104.8 0 0 0 1024.00112 918.72V185.28A104.8 104.8 0 0 0 920.32112 80z" fill="#333333" p-id="4874"></path><path d="M672.00112 64v96H352.00112V64h320m35.52-64H316.48112A28.48 28.48 0 0 0 288.00112 28.48v167.04A28.48 28.48 0 0 0 316.48112 224h391.04A28.48 28.48 0 0 0 736.00112 195.52V28.48A28.48 28.48 0 0 0 707.52112 0z" fill="#333333" p-id="4875"></path><path d="M192.00112 444.96m32 0l576 0q32 0 32 32l0 0q0 32-32 32l-576 0q-32 0-32-32l0 0q0-32 32-32Z" fill="#333333" p-id="4876"></path><path d="M192.00112 626.24m32 0l576 0q32 0 32 32l0 0q0 32-32 32l-576 0q-32 0-32-32l0 0q0-32 32-32Z" fill="#333333" p-id="4877"></path></svg>