<?xml version="1.0" standalone="no"?><!DOCTYPE svg PUBLIC "-//W3C//DTD SVG 1.1//EN" "http://www.w3.org/Graphics/SVG/1.1/DTD/svg11.dtd"><svg t="1599919424977" class="icon" viewBox="0 0 1024 1024" version="1.1" xmlns="http://www.w3.org/2000/svg" p-id="2636" xmlns:xlink="http://www.w3.org/1999/xlink" width="24" height="24"><defs><style type="text/css"></style></defs><path d="M192 800h640a32 32 0 0 0 0-64H192a32 32 0 0 0 0 64z" p-id="2637" fill="#2c2c2c"></path><path d="M990.272 596.96L875.264 113.216A64 64 0 0 0 812.992 64H210.336c-29.664 0-55.456 20.384-62.304 49.28L33.728 596.992a63.68 63.68 0 0 0-1.728 14.752V864a64 64 0 0 0 64 64h832a64 64 0 0 0 64-64v-252.256c0-4.992-0.576-9.952-1.728-14.784zM812.992 128l114.112 480h-384.96c0.896-2.944 1.856-5.92 1.856-9.152V512c0-3.84-0.96-7.424-2.176-10.848C649.792 491.36 736 429.376 736 347.328c0-81.504-85.056-143.168-192-153.6V128h268.992zM512 256c90.56 0 160 44.608 160 91.328s-69.44 91.328-160 91.328-160-44.608-160-91.328S421.44 256 512 256zM210.336 128H480v65.728c-106.944 10.4-192 72.096-192 153.6 0 82.048 86.208 144.064 194.176 153.824A32.256 32.256 0 0 0 480 512v86.848c0 3.232 0.96 6.208 1.856 9.152H96.896L210.336 128zM928 864H96v-192h832v192z" p-id="2638" fill="#2c2c2c"></path></svg>