<?xml version="1.0" standalone="no"?><!DOCTYPE svg PUBLIC "-//W3C//DTD SVG 1.1//EN" "http://www.w3.org/Graphics/SVG/1.1/DTD/svg11.dtd"><svg t="1600046970311" class="icon" viewBox="0 0 1024 1024" version="1.1" xmlns="http://www.w3.org/2000/svg" p-id="2024" xmlns:xlink="http://www.w3.org/1999/xlink" width="24" height="24"><defs><style type="text/css"></style></defs><path d="M85.333333 406.376296c-15.739259 0-28.444444-12.705185-28.444444-28.444444V132.740741c0-41.813333 34.038519-75.851852 75.851852-75.851852h245.191111c15.739259 0 28.444444 12.705185 28.444444 28.444444s-12.705185 28.444444-28.444444 28.444445H132.740741c-10.42963 0-18.962963 8.533333-18.962963 18.962963v245.191111c0 15.644444-12.705185 28.444444-28.444445 28.444444zM377.931852 967.111111H132.740741c-41.813333 0-75.851852-34.038519-75.851852-75.851852V646.068148c0-15.739259 12.705185-28.444444 28.444444-28.444444s28.444444 12.705185 28.444445 28.444444V891.259259c0 10.42963 8.533333 18.962963 18.962963 18.962963h245.191111c15.739259 0 28.444444 12.705185 28.444444 28.444445s-12.8 28.444444-28.444444 28.444444zM891.259259 967.111111H646.068148c-15.739259 0-28.444444-12.705185-28.444444-28.444444s12.705185-28.444444 28.444444-28.444445H891.259259c10.42963 0 18.962963-8.533333 18.962963-18.962963V646.068148c0-15.739259 12.705185-28.444444 28.444445-28.444444s28.444444 12.705185 28.444444 28.444444V891.259259c0 41.813333-34.038519 75.851852-75.851852 75.851852zM938.666667 406.281481c-15.739259 0-28.444444-12.705185-28.444445-28.444444V132.740741c0-10.42963-8.533333-18.962963-18.962963-18.962963H646.068148c-15.739259 0-28.444444-12.705185-28.444444-28.444445s12.705185-28.444444 28.444444-28.444444H891.259259c41.813333 0 75.851852 34.038519 75.851852 75.851852v245.191111c0 15.644444-12.705185 28.34963-28.444444 28.349629zM698.785185 770.56c0 1.896296-0.379259 3.602963-1.042963 5.025185-0.663704 1.422222-1.991111 2.56-3.982222 3.508148-1.896296 0.948148-4.645926 1.706667-8.059259 2.275556-3.508148 0.568889-7.86963 0.853333-13.084445 0.853333-4.740741 0-8.628148-0.18963-11.851852-0.663703-3.223704-0.379259-5.878519-1.232593-8.059259-2.465186s-3.982222-2.939259-5.404444-5.025185c-1.422222-2.085926-2.654815-4.740741-3.697778-8.059259l-50.251852-130.465185c-5.783704-14.696296-12.041481-28.539259-18.678518-41.528889-6.637037-12.98963-14.696296-24.272593-24.082963-33.848889-9.386667-9.576296-20.764444-17.066667-34.038519-22.660741-13.274074-5.499259-29.202963-8.343704-47.786667-8.343704h-55.656296v242.251852c0 1.706667-0.379259 3.223704-1.232592 4.551111-0.853333 1.422222-2.180741 2.465185-4.171852 3.318519-1.896296 0.853333-4.551111 1.517037-7.68 2.085926-3.223704 0.568889-7.300741 0.853333-12.231111 0.853333-4.740741 0-8.722963-0.284444-12.041482-0.853333-3.318519-0.568889-5.973333-1.232593-7.86963-2.085926-1.896296-0.853333-3.318519-1.896296-4.171851-3.318519-0.853333-1.422222-1.232593-2.939259-1.232593-4.551111V268.136296c0-9.955556 2.654815-16.877037 7.86963-20.574815 5.214815-3.697778 10.42963-5.594074 15.36-5.594074H486.4c13.274074 0 24.272593 0.379259 32.995556 1.042963 8.722963 0.663704 16.687407 1.611852 23.893333 2.654815 20.48 3.602963 38.4 9.386667 53.57037 17.445926 15.265185 8.059259 27.875556 17.92 37.831111 29.677037 9.955556 11.757037 17.351111 25.031111 22.186667 39.917037 4.835556 14.791111 7.300741 30.814815 7.300741 47.976296 0 17.73037-2.465185 33.564444-7.490371 47.597038-5.025185 14.032593-12.041481 26.358519-21.238518 36.977777-9.102222 10.714074-20.100741 19.911111-32.805926 27.591111-12.705185 7.774815-26.737778 14.317037-42.002963 19.531852 9.102222 4.171852 17.351111 9.291852 24.746667 15.36 7.300741 6.068148 14.127407 13.463704 20.385185 21.997037 6.257778 8.628148 12.136296 18.488889 17.635555 29.677037 5.499259 11.188148 11.093333 23.798519 16.592593 37.641482l50.251852 125.534815c3.602963 9.671111 5.878519 16.308148 6.826667 19.911111 1.232593 3.697778 1.706667 6.352593 1.706666 8.059259z m-89.315555-384.474074c0-23.04-5.12-42.477037-15.36-58.405926-10.24-15.928889-27.401481-27.401481-51.484445-34.322963-8.059259-2.180741-16.782222-3.792593-26.168889-4.740741-9.386667-0.948148-21.712593-1.422222-36.977777-1.422222h-66.465186v197.404445H490.192593c20.764444 0 38.684444-2.56 53.57037-7.68 14.980741-5.12 27.401481-12.136296 37.167407-20.954075 9.860741-8.817778 17.066667-19.247407 21.617778-31.194074 4.551111-11.946667 6.921481-24.841481 6.921482-38.684444z" p-id="2025"></path></svg>