<?xml version="1.0" standalone="no"?><!DOCTYPE svg PUBLIC "-//W3C//DTD SVG 1.1//EN" "http://www.w3.org/Graphics/SVG/1.1/DTD/svg11.dtd"><svg t="1600046960868" class="icon" viewBox="0 0 1024 1024" version="1.1" xmlns="http://www.w3.org/2000/svg" p-id="1816" xmlns:xlink="http://www.w3.org/1999/xlink" width="24" height="24"><defs><style type="text/css"></style></defs><path d="M536 664a8 8 0 0 1 8 8v168h-56a8 8 0 0 1-8-8V664H344a8 8 0 0 1 8 8v168h-56a8 8 0 0 1-8-8V664H176v-56a8 8 0 0 1 8-8h40V216c0-17.673 14.327-32 32-32h544v416h48v56a8 8 0 0 1-8 8H728a8 8 0 0 1 8 8v168h-56a8 8 0 0 1-8-8V664H536z" p-id="1817"></path></svg>